<svg width="449" height="684" viewBox="0 0 449 684" fill="none" xmlns="http://www.w3.org/2000/svg">
<path d="M444.205 185.093C436.411 174.104 421.186 171.507 410.195 179.299L276.849 273.812H276.524C262.086 292.573 257.477 298.559 243.805 316.321C243.236 317.062 242.36 317.501 241.425 317.515C240.491 317.529 239.599 317.118 239.008 316.396L233.854 310.11L233.788 310.03V310.11V614.061H308.111C314.985 614.061 320.371 608.141 319.728 601.302L293.443 321.852L438.409 219.103C449.4 211.312 451.995 196.085 444.205 185.093Z" fill="black"/>
<path d="M307.615 74.6117L228.206 34.5938C226.705 33.8368 224.938 33.8301 223.431 34.5743L143.681 73.9085C141.952 74.7601 140.815 76.4764 140.704 78.3998C140.593 80.3245 141.524 82.1564 143.141 83.2021L175.249 103.955L175.115 135.322C175.1 139.447 178.43 142.807 182.555 142.824L268.152 143.191C272.279 143.208 275.636 139.88 275.654 135.753L275.788 104.386L292.478 93.8006L328.421 151.324C330.441 154.557 334.702 155.539 337.935 153.519C341.168 151.499 342.152 147.239 340.132 144.006L304.14 86.4048L308.075 83.9092C309.702 82.8755 310.648 81.0518 310.554 79.1262C310.458 77.2023 309.336 75.4784 307.615 74.6117Z" fill="black"/>
<path d="M230.869 631.661V653.55H230.871C230.871 670.25 244.408 683.788 261.108 683.788C277.808 683.788 291.346 670.25 291.346 653.55V631.661H230.869Z" fill="black"/>
<path d="M157.338 631.661V653.55H157.34C157.34 670.25 170.877 683.788 187.577 683.788C204.277 683.788 217.815 670.25 217.815 653.55V631.661H157.338Z" fill="black"/>
<path d="M224.357 257.862C253.199 257.862 276.58 234.481 276.58 205.639C276.58 176.796 253.199 153.415 224.357 153.415C195.515 153.415 172.133 176.796 172.133 205.639C172.133 234.481 195.515 257.862 224.357 257.862Z" fill="black"/>
<path d="M204.721 273.812L224.815 297.591L244.907 273.812H204.721Z" fill="black"/>
<path d="M215.838 310.11V310.031L215.772 310.11L210.618 316.396C210.026 317.12 209.135 317.53 208.202 317.516C207.268 317.501 206.391 317.06 205.821 316.321C194.482 301.588 192.246 298.682 174.61 275.767L38.504 179.298C27.5103 171.506 12.2837 174.101 4.49469 185.092C-3.29749 196.084 -0.700617 211.312 10.29 219.101L155.773 322.216L129.521 601.3C128.877 608.144 134.268 614.06 141.138 614.06H215.843V310.11H215.838Z" fill="black"/>
</svg>
